<mxfile host="app.diagrams.net" agent="Mozilla/5.0 (Windows NT 10.0; Win64; x64) AppleWebKit/537.36 (KHTML, like Gecko) Chrome/138.0.0.0 Safari/537.36" version="28.0.7">
  <diagram name="Page-1" id="UJfJM6G8218_ZRizplGX">
    <mxGraphModel dx="872" dy="511" grid="1" gridSize="10" guides="1" tooltips="1" connect="1" arrows="1" fold="1" page="1" pageScale="1" pageWidth="850" pageHeight="1100" math="0" shadow="0">
      <root>
        <mxCell id="0" />
        <mxCell id="1" parent="0" />
        <mxCell id="kBYzSnEhJ9a0xplkR4BM-1" value="" style="rounded=0;whiteSpace=wrap;html=1;align=center;" parent="1" vertex="1">
          <mxGeometry x="200" y="60" width="560" height="190" as="geometry" />
        </mxCell>
        <mxCell id="ggmWFZlsdQd6J-PA4ldU-1" value="&lt;font style=&quot;font-size: 14px;&quot;&gt;Thingsboard - Core&lt;/font&gt;&lt;div&gt;&lt;font style=&quot;font-size: 14px;&quot;&gt;Backend&lt;/font&gt;&lt;/div&gt;" style="text;html=1;align=center;verticalAlign=middle;whiteSpace=wrap;rounded=0;" parent="1" vertex="1">
          <mxGeometry x="390" y="80" width="150" height="50" as="geometry" />
        </mxCell>
        <mxCell id="ggmWFZlsdQd6J-PA4ldU-3" value="Nats Sub" style="rounded=0;whiteSpace=wrap;html=1;" parent="1" vertex="1">
          <mxGeometry x="330" y="190" width="70" height="40" as="geometry" />
        </mxCell>
        <mxCell id="ggmWFZlsdQd6J-PA4ldU-5" value="Nats Pub" style="rounded=0;whiteSpace=wrap;html=1;" parent="1" vertex="1">
          <mxGeometry x="230" y="190" width="70" height="40" as="geometry" />
        </mxCell>
        <mxCell id="ggmWFZlsdQd6J-PA4ldU-6" value="Kafka Publisher" style="rounded=0;whiteSpace=wrap;html=1;" parent="1" vertex="1">
          <mxGeometry x="500" y="190" width="110" height="40" as="geometry" />
        </mxCell>
        <mxCell id="ggmWFZlsdQd6J-PA4ldU-8" value="Kafka Subscriber" style="rounded=0;whiteSpace=wrap;html=1;" parent="1" vertex="1">
          <mxGeometry x="630" y="190" width="110" height="40" as="geometry" />
        </mxCell>
        <mxCell id="ggmWFZlsdQd6J-PA4ldU-9" value="NATS Server" style="rounded=0;whiteSpace=wrap;html=1;" parent="1" vertex="1">
          <mxGeometry x="240" y="320" width="150" height="40" as="geometry" />
        </mxCell>
        <mxCell id="ggmWFZlsdQd6J-PA4ldU-10" value="Kafka Broker" style="rounded=0;whiteSpace=wrap;html=1;" parent="1" vertex="1">
          <mxGeometry x="520" y="320" width="200" height="40" as="geometry" />
        </mxCell>
        <mxCell id="ggmWFZlsdQd6J-PA4ldU-11" value="Meter 2" style="rounded=1;whiteSpace=wrap;html=1;" parent="1" vertex="1">
          <mxGeometry x="40" y="275" width="80" height="30" as="geometry" />
        </mxCell>
        <mxCell id="ggmWFZlsdQd6J-PA4ldU-12" value="Meter 3" style="rounded=1;whiteSpace=wrap;html=1;" parent="1" vertex="1">
          <mxGeometry x="40" y="325" width="80" height="30" as="geometry" />
        </mxCell>
        <mxCell id="ggmWFZlsdQd6J-PA4ldU-19" value="" style="edgeStyle=orthogonalEdgeStyle;rounded=0;orthogonalLoop=1;jettySize=auto;html=1;entryX=0;entryY=0.5;entryDx=0;entryDy=0;startArrow=classic;startFill=1;" parent="1" source="ggmWFZlsdQd6J-PA4ldU-13" target="ggmWFZlsdQd6J-PA4ldU-9" edge="1">
          <mxGeometry relative="1" as="geometry">
            <mxPoint x="260" y="350" as="targetPoint" />
            <Array as="points">
              <mxPoint x="180" y="245" />
              <mxPoint x="180" y="340" />
            </Array>
          </mxGeometry>
        </mxCell>
        <mxCell id="ggmWFZlsdQd6J-PA4ldU-13" value="Meter 1" style="rounded=1;whiteSpace=wrap;html=1;" parent="1" vertex="1">
          <mxGeometry x="40" y="230" width="80" height="30" as="geometry" />
        </mxCell>
        <mxCell id="ggmWFZlsdQd6J-PA4ldU-16" value="Meter 4" style="rounded=1;whiteSpace=wrap;html=1;" parent="1" vertex="1">
          <mxGeometry x="40" y="370" width="80" height="30" as="geometry" />
        </mxCell>
        <mxCell id="ggmWFZlsdQd6J-PA4ldU-21" value="" style="edgeStyle=orthogonalEdgeStyle;rounded=0;orthogonalLoop=1;jettySize=auto;html=1;exitX=1;exitY=0.25;exitDx=0;exitDy=0;entryX=0;entryY=0.5;entryDx=0;entryDy=0;startArrow=classic;startFill=1;" parent="1" source="ggmWFZlsdQd6J-PA4ldU-11" target="ggmWFZlsdQd6J-PA4ldU-9" edge="1">
          <mxGeometry relative="1" as="geometry">
            <mxPoint x="150" y="270" as="sourcePoint" />
            <mxPoint x="260" y="365" as="targetPoint" />
            <Array as="points">
              <mxPoint x="120" y="290" />
              <mxPoint x="150" y="290" />
              <mxPoint x="150" y="340" />
            </Array>
          </mxGeometry>
        </mxCell>
        <mxCell id="ggmWFZlsdQd6J-PA4ldU-24" value="" style="edgeStyle=orthogonalEdgeStyle;rounded=0;orthogonalLoop=1;jettySize=auto;html=1;exitX=1;exitY=0.5;exitDx=0;exitDy=0;startArrow=classic;startFill=1;" parent="1" source="ggmWFZlsdQd6J-PA4ldU-16" edge="1">
          <mxGeometry relative="1" as="geometry">
            <mxPoint x="150" y="340" as="sourcePoint" />
            <mxPoint x="240" y="340" as="targetPoint" />
            <Array as="points">
              <mxPoint x="180" y="390" />
              <mxPoint x="180" y="340" />
            </Array>
          </mxGeometry>
        </mxCell>
        <mxCell id="ggmWFZlsdQd6J-PA4ldU-26" value="Meter 5" style="rounded=1;whiteSpace=wrap;html=1;" parent="1" vertex="1">
          <mxGeometry x="40" y="420" width="80" height="30" as="geometry" />
        </mxCell>
        <mxCell id="ggmWFZlsdQd6J-PA4ldU-27" value="" style="edgeStyle=orthogonalEdgeStyle;rounded=0;orthogonalLoop=1;jettySize=auto;html=1;exitX=1;exitY=0.5;exitDx=0;exitDy=0;entryX=0;entryY=0.5;entryDx=0;entryDy=0;startArrow=classic;startFill=1;" parent="1" source="ggmWFZlsdQd6J-PA4ldU-26" target="ggmWFZlsdQd6J-PA4ldU-9" edge="1">
          <mxGeometry relative="1" as="geometry">
            <mxPoint x="170" y="320" as="sourcePoint" />
            <mxPoint x="320" y="377" as="targetPoint" />
            <Array as="points">
              <mxPoint x="150" y="435" />
              <mxPoint x="150" y="340" />
            </Array>
          </mxGeometry>
        </mxCell>
        <mxCell id="ggmWFZlsdQd6J-PA4ldU-29" value="&lt;font style=&quot;font-size: 13px;&quot;&gt;&amp;nbsp;Cassandra&lt;/font&gt;" style="shape=cylinder3;whiteSpace=wrap;html=1;boundedLbl=1;backgroundOutline=1;size=15;" parent="1" vertex="1">
          <mxGeometry x="645" y="70" width="90" height="80" as="geometry" />
        </mxCell>
        <mxCell id="ggmWFZlsdQd6J-PA4ldU-30" value="" style="endArrow=classic;html=1;rounded=0;exitX=0.5;exitY=0;exitDx=0;exitDy=0;entryX=0.5;entryY=0;entryDx=0;entryDy=0;edgeStyle=orthogonalEdgeStyle;" parent="1" edge="1">
          <mxGeometry width="50" height="50" relative="1" as="geometry">
            <mxPoint x="362" y="190" as="sourcePoint" />
            <mxPoint x="552" y="190" as="targetPoint" />
            <Array as="points">
              <mxPoint x="362" y="170" />
              <mxPoint x="552" y="170" />
            </Array>
          </mxGeometry>
        </mxCell>
        <mxCell id="ggmWFZlsdQd6J-PA4ldU-31" value="" style="endArrow=classic;html=1;rounded=0;entryX=1;entryY=0.5;entryDx=0;entryDy=0;exitX=0;exitY=0.5;exitDx=0;exitDy=0;" parent="1" source="ggmWFZlsdQd6J-PA4ldU-3" target="ggmWFZlsdQd6J-PA4ldU-5" edge="1">
          <mxGeometry width="50" height="50" relative="1" as="geometry">
            <mxPoint x="400" y="330" as="sourcePoint" />
            <mxPoint x="450" y="280" as="targetPoint" />
          </mxGeometry>
        </mxCell>
        <mxCell id="ggmWFZlsdQd6J-PA4ldU-34" value="" style="endArrow=classic;startArrow=classic;html=1;rounded=0;exitX=1;exitY=0.5;exitDx=0;exitDy=0;entryX=0;entryY=0.5;entryDx=0;entryDy=0;" parent="1" source="ggmWFZlsdQd6J-PA4ldU-12" target="ggmWFZlsdQd6J-PA4ldU-9" edge="1">
          <mxGeometry width="50" height="50" relative="1" as="geometry">
            <mxPoint x="400" y="330" as="sourcePoint" />
            <mxPoint x="450" y="280" as="targetPoint" />
          </mxGeometry>
        </mxCell>
        <mxCell id="ggmWFZlsdQd6J-PA4ldU-36" value="" style="endArrow=classic;html=1;rounded=0;exitX=0.75;exitY=0;exitDx=0;exitDy=0;" parent="1" edge="1">
          <mxGeometry width="50" height="50" relative="1" as="geometry">
            <mxPoint x="360.5" y="320" as="sourcePoint" />
            <mxPoint x="360" y="230" as="targetPoint" />
          </mxGeometry>
        </mxCell>
        <mxCell id="ggmWFZlsdQd6J-PA4ldU-37" value="" style="endArrow=none;html=1;rounded=0;endFill=0;startArrow=classic;startFill=1;entryX=0.5;entryY=1;entryDx=0;entryDy=0;" parent="1" target="ggmWFZlsdQd6J-PA4ldU-5" edge="1">
          <mxGeometry width="50" height="50" relative="1" as="geometry">
            <mxPoint x="265" y="320" as="sourcePoint" />
            <mxPoint x="267" y="240" as="targetPoint" />
          </mxGeometry>
        </mxCell>
        <mxCell id="ggmWFZlsdQd6J-PA4ldU-38" value="" style="endArrow=none;html=1;rounded=0;endFill=0;startArrow=classic;startFill=1;entryX=0.5;entryY=1;entryDx=0;entryDy=0;" parent="1" edge="1">
          <mxGeometry width="50" height="50" relative="1" as="geometry">
            <mxPoint x="551" y="321" as="sourcePoint" />
            <mxPoint x="551" y="231" as="targetPoint" />
          </mxGeometry>
        </mxCell>
        <mxCell id="ggmWFZlsdQd6J-PA4ldU-39" value="" style="endArrow=classic;html=1;rounded=0;entryX=0.414;entryY=0.925;entryDx=0;entryDy=0;entryPerimeter=0;exitX=0.88;exitY=0;exitDx=0;exitDy=0;exitPerimeter=0;" parent="1" edge="1">
          <mxGeometry width="50" height="50" relative="1" as="geometry">
            <mxPoint x="691" y="320" as="sourcePoint" />
            <mxPoint x="690" y="231" as="targetPoint" />
          </mxGeometry>
        </mxCell>
        <mxCell id="ggmWFZlsdQd6J-PA4ldU-40" value="" style="endArrow=classic;html=1;rounded=0;entryX=0.5;entryY=1;entryDx=0;entryDy=0;entryPerimeter=0;fillColor=#f8cecc;gradientColor=#ea6b66;strokeColor=#b85450;" parent="1" edge="1">
          <mxGeometry width="50" height="50" relative="1" as="geometry">
            <mxPoint x="690" y="190" as="sourcePoint" />
            <mxPoint x="690" y="150" as="targetPoint" />
          </mxGeometry>
        </mxCell>
      </root>
    </mxGraphModel>
  </diagram>
</mxfile>
